<svg id="Layer_1" enable-background="new 0 0 512 512" height="512" viewBox="0 0 512 512" width="512" xmlns="http://www.w3.org/2000/svg" xmlns:xlink="http://www.w3.org/1999/xlink"><linearGradient id="SVGID_1_" gradientUnits="userSpaceOnUse" x1="45.42" x2="407.457" y1="408.287" y2="46.251"><stop offset="0" stop-color="#fcc60e"/><stop offset="1" stop-color="#e92e29"/></linearGradient><path d="m114.099 133.956c2.629 5.632 8.282 9.231 14.498 9.231h77.807v27.48c0 8.837 7.164 16 16 16s16-7.163 16-16v-27.48h7.371c8.836 0 16-7.163 16-16s-7.164-16-16-16h-7.371v-96.015c0-6.729-4.21-12.739-10.535-15.038-6.323-2.295-13.411-.395-17.731 4.766l-93.808 112.015c-3.991 4.765-4.861 11.41-2.231 17.041zm92.304-74.758v51.989h-43.538zm80.967 339.869 83.823-130.87h-61.718c-8.836 0-16-7.163-16-16s7.164-16 16-16h90.967c5.848 0 11.23 3.19 14.037 8.321s2.59 11.384-.564 16.309l-99.598 155.5c-3.054 4.769-8.216 7.372-13.488 7.372-2.954 0-5.942-.817-8.615-2.528-7.442-4.767-9.61-14.662-4.844-22.104zm83.76-294.007c6.249 6.248 6.249 16.379 0 22.627l-235.858 235.859c-3.124 3.124-7.219 4.687-11.313 4.687s-8.189-1.563-11.313-4.687c-6.249-6.248-6.249-16.379 0-22.627l235.857-235.859c6.248-6.248 16.379-6.248 22.627 0zm-280.633-33.522c4.05-14.83 1.483-26.005-7.629-33.215-10.201-8.07-27.184-9.497-38.664-3.246-8.722 4.75-12.587 12.957-11.487 24.395.846 8.796-5.599 16.612-14.395 17.459-8.796.832-16.612-5.6-17.458-14.395-2.34-24.333 7.879-44.585 28.036-55.562 22.625-12.32 53.671-9.69 73.824 6.254 19.268 15.245 26.062 39.57 18.642 66.739-5.008 18.338-22.15 31.715-41.999 47.205-10.716 8.362-22.274 17.381-31.965 27.495h66.277c8.836 0 16 7.163 16 16s-7.164 16-16 16h-97.344c-5.511 0-10.635-2.837-13.56-7.508s-3.241-10.519-.835-15.477c13.024-26.845 36.78-45.383 57.74-61.738 14.066-10.975 28.61-22.325 30.817-30.406zm421.503 185.29c0 68.38-26.628 132.667-74.98 181.02-48.352 48.352-112.64 74.98-181.02 74.98s-132.667-26.629-181.02-74.98c-48.352-48.353-74.98-112.64-74.98-181.02 0-8.837 7.164-16 16-16s16 7.163 16 16c0 123.514 100.486 224 224 224s224-100.486 224-224c0-112.136-83.714-207.617-194.726-222.099-8.762-1.143-14.939-9.173-13.796-17.935 1.143-8.763 9.166-14.942 17.936-13.796 61.113 7.972 117.365 37.904 158.394 84.283 41.395 46.795 64.192 107.008 64.192 169.547z" fill="url(#SVGID_1_)"/></svg>