<svg id="Layer_2" height="512" viewBox="0 0 32 32" width="512" xmlns="http://www.w3.org/2000/svg" xmlns:xlink="http://www.w3.org/1999/xlink"><linearGradient id="SVGID_1_" gradientUnits="userSpaceOnUse" x1="-.063" x2="31.938" y1="16.063" y2="16.063"><stop offset="0" stop-color="#fff33b"/><stop offset=".014" stop-color="#fee72e"/><stop offset=".042" stop-color="#fed51b"/><stop offset=".07" stop-color="#fdca10"/><stop offset=".1" stop-color="#fdc70c"/><stop offset=".4" stop-color="#f3903f"/><stop offset=".8" stop-color="#ed683c"/><stop offset="1" stop-color="#e93e3a"/></linearGradient><path d="m15.938 32.063c-8.822 0-16-7.178-16-16s7.178-16 16-16 16 7.178 16 16-7.178 16-16 16zm0-30c-7.72 0-14 6.28-14 14s6.28 14 14 14 14-6.28 14-14-6.281-14-14-14zm6.411 21.274c-.257 0-.513-.098-.708-.294l-2.633-2.641c-1.11.82-2.448 1.264-3.854 1.264-1.737 0-3.37-.677-4.598-1.905s-1.904-2.86-1.904-4.597.676-3.37 1.904-4.598 2.86-1.905 4.598-1.905 3.37.677 4.598 1.905c1.229 1.228 1.904 2.861 1.904 4.598 0 1.392-.434 2.716-1.238 3.819l2.64 2.647c.39.391.389 1.024-.002 1.414-.197.196-.452.293-.707.293zm-7.196-12.675c-1.203 0-2.333.468-3.184 1.319-.851.85-1.318 1.981-1.318 3.184s.468 2.333 1.318 3.183c.851.851 1.98 1.319 3.184 1.319s2.333-.468 3.184-1.319c.851-.85 1.318-1.98 1.318-3.183s-.468-2.333-1.318-3.184c-.851-.851-1.981-1.319-3.184-1.319z" fill="url(#SVGID_1_)"/></svg>