<svg id="Layer_1" enable-background="new 0 0 512 512" height="512" viewBox="0 0 512 512" width="512" xmlns="http://www.w3.org/2000/svg" xmlns:xlink="http://www.w3.org/1999/xlink"><linearGradient id="SVGID_1_" gradientUnits="userSpaceOnUse" x1="75.066" x2="436.935" y1="436.934" y2="75.065"><stop offset="0" stop-color="#fcc60e"/><stop offset="1" stop-color="#e92e29"/></linearGradient><path d="m419.486 334.011c2.25 2.25 3.515 5.303 3.515 8.485s-1.264 6.234-3.515 8.485l-44.624 44.624c-2.343 2.343-5.414 3.515-8.485 3.515s-6.142-1.172-8.485-3.515c-4.686-4.687-4.687-12.284 0-16.971l24.138-24.139h-60.883c-28.724 0-53.215-15.497-72.795-46.062l-19.34-30.189-19.34 30.19c-19.581 30.563-44.072 46.061-72.796 46.061h-35.876c-6.627 0-12-5.372-12-12s5.373-12 12-12h35.875c20.294 0 37.496-11.451 52.587-35.008l25.298-39.487-25.297-39.488c-15.091-23.558-32.292-35.009-52.587-35.009h-35.876c-6.627 0-12-5.373-12-12s5.373-12 12-12h35.875c28.723 0 53.215 15.497 72.796 46.062l19.34 30.189 19.34-30.189c19.58-30.564 44.072-46.062 72.795-46.062h60.882l-24.138-24.138c-4.686-4.687-4.687-12.284 0-16.971 4.687-4.686 12.284-4.686 16.971 0l44.624 44.623c2.25 2.25 3.515 5.303 3.515 8.485s-1.264 6.235-3.515 8.485l-44.624 44.623c-2.343 2.343-5.415 3.515-8.485 3.515-3.071 0-6.142-1.171-8.485-3.515-4.687-4.687-4.686-12.284 0-16.971l24.138-24.138h-60.882c-20.294 0-37.496 11.451-52.586 35.008l-25.298 39.491 25.298 39.489c15.09 23.557 32.292 35.008 52.586 35.008h60.882l-24.138-24.138c-4.686-4.687-4.687-12.284 0-16.971 4.687-4.686 12.284-4.686 16.971 0zm92.514-78.011c0 141.159-114.841 256-256 256s-256-114.841-256-256 114.841-256 256-256 256 114.841 256 256zm-24 0c0-127.925-104.074-232-232-232s-232 104.075-232 232 104.075 232 232 232 232-104.076 232-232z" fill="url(#SVGID_1_)"/></svg>