<svg id="Layer_1" enable-background="new 0 0 512 512" height="512" viewBox="0 0 512 512" width="512" xmlns="http://www.w3.org/2000/svg" xmlns:xlink="http://www.w3.org/1999/xlink"><linearGradient id="SVGID_1_" gradientUnits="userSpaceOnUse" x1="75.066" x2="436.934" y1="436.935" y2="75.066"><stop offset="0" stop-color="#fcc60e"/><stop offset="1" stop-color="#e92e29"/></linearGradient><path d="m403.245 182.018c2.255 3.136 2.862 7.165 1.633 10.827l-45.301 134.872c-1.642 4.888-6.221 8.18-11.376 8.18h-180.024c-6.628 0-12-5.372-12-12s5.372-12 12-12h171.396l37.239-110.873h-214.05c-5.557 0-10.387-3.814-11.674-9.221l-13.135-55.161h-19.452c-6.628 0-12-5.373-12-12 0-6.628 5.372-12 12-12h28.931c5.557 0 10.387 3.814 11.674 9.221l13.135 55.161h221.261c3.862-.001 7.488 1.858 9.743 4.994zm-136.282 74.442c0-6.628-5.372-12-12-12h-136.462c-6.628 0-12 5.372-12 12s5.372 12 12 12h136.462c6.628 0 12-5.372 12-12zm-66.162 105.066c-12.622 0-22.917 10.295-22.917 22.917s10.295 22.917 22.917 22.917 22.918-10.295 22.918-22.917-10.296-22.917-22.918-22.917zm136.036 0c-12.622 0-22.917 10.295-22.917 22.917s10.295 22.917 22.917 22.917 22.917-10.294 22.917-22.917-10.295-22.917-22.917-22.917zm175.163-105.526c0 141.159-114.841 256-256 256s-256-114.841-256-256 114.841-256 256-256 256 114.841 256 256zm-24 0c0-127.925-104.075-232-232-232s-232 104.075-232 232 104.075 232 232 232 232-104.075 232-232z" fill="url(#SVGID_1_)"/></svg>