<svg id="Layer_1" enable-background="new 0 0 512 512" viewBox="0 0 512 512" xmlns="http://www.w3.org/2000/svg" xmlns:xlink="http://www.w3.org/1999/xlink"><linearGradient id="SVGID_1_" gradientTransform="matrix(1 0 0 -1 0 511.89)" gradientUnits="userSpaceOnUse" x1="0" x2="512" y1="255.89" y2="255.89"><stop offset="0" stop-color="#ef5425"/><stop offset="1" stop-color="#fca84c"/></linearGradient><path d="m277.3 114h-224.4c-10.3 0-19.1 8-19.4 18.3-.4 10.5 7.8 19.3 18.3 19.7h.7 55.2c8.5 0 15.4 6.9 15.4 15.4 0 8.5-6.9 15.4-15.4 15.4h-38.4c-10.3 0-19.1 8-19.4 18.3-.4 10.5 7.8 19.3 18.3 19.7h.7 25.5c8.7 0 16.1 6.7 16.6 15.3.4 8.9-6.4 16.5-15.3 16.9-.3 0-.5 0-.8 0h-75.5c-10.3 0-19 8-19.4 18.3-.4 10.5 7.8 19.3 18.3 19.7h.7 70.4c8.5.4 15.1 7.7 14.6 16.2-.4 8-6.8 14.3-14.8 14.6h-22.5c-10.3 0-19.1 8-19.4 18.3-.4 10.5 7.8 19.3 18.3 19.7h.7 67.7c4.1 22.2 22.7 38.3 47.3 38.3 24.4 0 47.3-15.7 57.8-37.6 13.6-.1 28.2-.3 41.5-.7s32.5-.4 70-1.2c3.7 22.8 22.5 39.5 47.6 39.5 26.7 0 51.6-18.9 60.5-44 .9-.1 1.6-.3 2.1-.4 19.6-4.9 36.1-21.2 40.7-41.2 2.7-11.7 6.7-34.5 10-57 1.1-6.9.3-14-2.4-20.5-8.3-19.4-18.3-38-30-55.6-11-16.4-29.5-26.2-50.7-26.5-11.8-.2-23.3-.3-32.4-.3-4.5-20.2-21-34.5-43-37-25.5-1.8-75.7-1.6-75.7-1.6zm-70.4 228.6c-1.4 9.8-10.4 17.7-20.2 17.7s-16.6-7.9-15.2-17.7 10.4-17.7 20.2-17.7 16.6 8 15.2 17.7zm152.2-172.3c-.9 17.7-3.3 40-7 66.5s-7.6 48.8-11.7 66.5c-2.2 9.2-10 16.1-19.5 17.1-14 1.2-47.7 2.2-77.1 2.3-5.1-20.8-23.2-35.6-46.8-35.6-20.3 0-39.6 10.9-51.6 27.2-2.4-3.2-3.6-7.1-3.4-11.1.9-17.7 3.3-40 7-66.5 3.7-26.4 7.6-48.8 11.7-66.5 2.2-9.3 10.1-16.1 19.5-17.1 14.9-1.3 51.8-2.4 82.4-2.4s67.2 1.1 81.7 2.4c9.1.9 15.3 8.1 14.8 17.2zm64.7 172.3c-1.4 9.8-10.4 17.7-20.2 17.7s-16.6-7.9-15.2-17.7 10.4-17.7 20.2-17.7 16.5 8 15.2 17.7zm50-87.4c-3.2 21.7-7 43.4-9.5 54-.8 3.1-2.9 5.7-5.7 7.1-6.9-17.4-23.6-29.2-44.8-29.2-12.3.1-24.2 3.9-34.4 10.8 3.2-15.4 6.8-35.4 10.4-61.2 2.6-18.2 4.3-33.5 5.5-46.4 8 0 17.5.1 27.1.3 9.9.2 18.6 4.7 23.9 12.6 10.6 16 19.7 32.9 27.2 50.5.3.5.4 1 .3 1.5zm-432.5-53.4c0 10.5-8.5 19-19 19s-19-8.5-19-19 8.5-19 19-19c10.5 0 19 8.5 19 19zm208.9-15.6c-2.3-1.9-5.1-3.1-8.1-3.5-.8-.2-1.7-.2-2.6-.3-1 0-1.7-.1-2.3-.1h-18.9c-3.4.1-6.2 2.6-6.7 5.9l-6.6 47.3c-.5 2.6 1.2 5 3.8 5.5.3.1.7.1 1 .1 3.2-.1 5.8-2.4 6.3-5.5l2-14.4h12.4l5.8 16.8c.7 1.9 2.5 3.2 4.5 3.1h.2c4.1 0 7.4-4.3 6.1-8l-4.8-13.8c2.6-1.1 5-2.8 6.8-4.9 3-3.6 4.9-8 5.4-12.6.5-3 .4-6-.3-8.9-.6-2.6-2-4.9-4-6.7zm-6.8 15.6c-.2 1.2-.5 2.3-.9 3.4-.5 1.2-1.2 2.3-2.1 3.2-1 1-2.3 1.7-3.7 2.1-.6.2-1.3.3-1.9.3-.7 0-1.3.1-1.9.1h-13.2l2.5-18.1h13.2c.6 0 1.2 0 1.9.1.6 0 1.2.2 1.8.3 1.3.3 2.4 1 3.2 2.1.7 1 1.1 2.1 1.2 3.2 0 1.1 0 2.2-.1 3.3zm-38.2-13.8c-.5 3.1-3.2 5.5-6.3 5.5h-19.2l-1.8 12.7h14.4c2.6-.1 4.8 2 4.8 4.6 0 .3 0 .7-.1 1-.5 3.1-3.2 5.5-6.3 5.5h-14.4l-2.6 18.2c-.5 3.1-3.2 5.5-6.3 5.5-2.6.1-4.8-2-4.8-4.6 0-.3 0-.6.1-1l6.6-47.3c.5-3.3 3.4-5.8 6.7-5.9h24.5c2.6-.1 4.8 2 4.8 4.6 0 .5 0 .9-.1 1.2zm142.7-.4c-.5 2.9-2.9 5.1-5.9 5.2h-22.1l-1.8 12.6h17.2c2.4-.1 4.5 1.8 4.5 4.3 0 .3 0 .6-.1.9-.5 2.9-3 5.1-5.9 5.2h-17.2l-2.1 15.1h22.1c2.4-.1 4.5 1.8 4.5 4.3 0 .3 0 .6-.1.9-.5 2.9-3 5.1-5.9 5.2h-27.3c-2.8.1-5.1-2.1-5.1-4.9 0-.3 0-.7.1-1l6.6-47c.5-3.3 3.4-5.8 6.7-5.9h27.3c2.4-.1 4.5 1.8 4.6 4.2 0 .2 0 .6-.1.9zm-45.7 0c-.5 2.9-3 5.1-5.9 5.2h-22.1l-1.8 12.6h17.2c2.4-.1 4.4 1.8 4.5 4.3 0 .3 0 .6-.1.9-.5 2.9-2.9 5.1-5.9 5.2h-17.1l-2.1 15.1h22c2.4-.1 4.5 1.8 4.5 4.3 0 .3 0 .6-.1.9-.5 2.9-3 5.1-5.9 5.2h-27.2c-2.8.1-5.1-2.1-5.1-4.9 0-.3 0-.7.1-1l6.6-47c.5-3.3 3.3-5.8 6.7-5.9h27.3c2.4-.1 4.5 1.8 4.5 4.3 0 .2 0 .5-.1.8z" fill="url(#SVGID_1_)"/></svg>