<svg width="150" height="150" id="Layer_1" enable-background="new 0 0 512 512" viewBox="0 0 512 512" xmlns="http://www.w3.org/2000/svg" xmlns:xlink="http://www.w3.org/1999/xlink"><linearGradient id="SVGID_1_" gradientUnits="userSpaceOnUse" x1="12.671" x2="438.488" y1="427.613" y2="1.797"><stop offset="0" stop-color="#fcc60e"/><stop offset="1" stop-color="#e92e29"/></linearGradient><path d="m341.762 349.819-69.315 40.373c-2.018 1.175-4.058 2.14-6.141 2.897.519-1.247.964-2.558 1.333-3.931 3.798-14.176-4.596-28.966-19.111-33.672-.343-.111-.693-.199-1.047-.263-19.768-3.565-39.349-10.644-55.082-16.332-5.503-1.99-10.702-3.869-15.14-5.308-18.436-5.982-34.933 1.325-48.638 9.259l-49.953 28.922-3.942-6.966c-4.945-8.736-16.075-11.821-24.812-6.877l-19.448 11.007c-8.736 4.944-11.822 16.074-6.878 24.811l57.178 101.029c3.346 5.911 9.523 9.235 15.875 9.235 3.036 0 6.111-.759 8.937-2.358l19.448-11.007c8.736-4.945 11.821-16.075 6.877-24.812l-4.992-8.821 9.504-5.487 88.038 23.589c5.062 1.357 10.099 2.032 15.054 2.031 10.024 0 19.71-2.761 28.565-8.213l125.792-77.457c12.281-7.561 16.212-26.558 8.249-39.855-3.851-6.424-19.577-25.541-60.351-1.794zm-224.618 126.895-19.448 11.007c-1.041.588-2.417.208-3.006-.833l-57.178-101.028c-.589-1.041-.207-2.417.833-3.006l19.448-11.007c.333-.188.7-.277 1.065-.277.776 0 1.541.403 1.941 1.11l57.178 101.028c.589 1.041.208 2.417-.833 3.006zm268.33-98.867-125.791 77.457c-9.526 5.864-19.985 7.329-31.089 4.352l-91.24-24.447c-2.05-.549-4.234-.262-6.07.799l-12.255 7.075-32.481-57.393 50.089-29.001c11.19-6.479 23.259-11.918 35.685-7.886 4.185 1.357 9.028 3.108 14.637 5.136 16.146 5.837 36.203 13.088 57.086 16.923 6.234 2.246 9.72 8.252 8.138 14.157-1.682 6.277-6.386 9.016-13.969 8.156-10.097-2.082-19.73-4.83-29.919-7.74-4.878-1.393-9.922-2.833-15.113-4.225-4.269-1.142-8.655 1.39-9.798 5.657-1.143 4.268 1.39 8.654 5.657 9.798 5.065 1.357 10.044 2.779 14.86 4.154 10.613 3.031 20.637 5.894 31.465 8.107.054.011.109.015.163.025.052.01.103.025.155.033l8.624 1.402c13.332 2.133 25.169.049 36.19-6.369l69.316-40.373c18.682-10.881 33.461-12.339 38.57-3.809 3.449 5.76 1.953 15.017-2.91 18.012zm-322.948 11.903c.555 3.795-2.072 7.32-5.866 7.875-3.795.555-7.32-2.072-7.875-5.866s2.072-7.32 5.866-7.875 7.32 2.071 7.875 5.866zm79.929-255.21c1.233 2.44 2.344 4.606 3.341 6.551 3.993 7.786 5.997 11.693 6.581 15.006.584 3.312.038 7.67-1.051 16.353-.272 2.169-.575 4.584-.899 7.298-1.756 14.681 6.197 28.456 19.79 34.277 2.513 1.076 4.756 2.021 6.77 2.87.559.235 1.094.461 1.615.681l-32.116 68.981c-1.258 2.702-.91 5.878.903 8.244 1.813 2.365 4.79 3.529 7.726 3.013l35.419-6.188 18.065 31.087c1.436 2.471 4.076 3.98 6.916 3.98.121 0 .243-.003.364-.008 2.977-.135 5.632-1.914 6.89-4.615l31.632-67.943-.884-.412c5.845-1.779 9.219-2.674 12.011-2.674 3.364 0 7.561 1.295 15.921 3.875.949.293 1.954.603 3.005.926l22.932 53.244c1.179 2.737 3.782 4.592 6.753 4.813.199.015.398.022.596.022 2.752 0 5.33-1.419 6.796-3.782l18.958-30.551 35.224 7.214c2.921.598 5.929-.477 7.81-2.788 1.881-2.312 2.321-5.477 1.143-8.214l-26.176-60.775c.759-.322 1.535-.653 2.349-1.001 13.592-5.821 21.545-19.596 19.791-34.277-.325-2.715-.627-5.131-.899-7.3-1.089-8.682-1.636-13.039-1.051-16.352.584-3.312 2.588-7.221 6.581-15.007.997-1.945 2.108-4.11 3.341-6.55 6.67-13.195 3.908-28.86-6.873-38.979-1.994-1.872-3.778-3.527-5.381-5.014-6.415-5.95-9.634-8.937-11.316-11.85s-2.659-7.195-4.605-15.726c-.486-2.131-1.027-4.504-1.651-7.166-3.372-14.396-15.557-24.621-30.32-25.442-2.729-.152-5.161-.273-7.344-.381-8.739-.435-13.125-.654-16.286-1.804s-6.661-3.802-13.635-9.085c-1.743-1.32-3.683-2.791-5.872-4.429-11.838-8.859-27.744-8.859-39.58 0-2.188 1.638-4.128 3.107-5.871 4.427-6.974 5.284-10.475 7.937-13.636 9.087s-7.547 1.369-16.286 1.804c-2.183.108-4.614.229-7.344.381-14.763.821-26.948 11.045-30.32 25.442-.624 2.662-1.165 5.034-1.651 7.165-1.946 8.531-2.923 12.813-4.605 15.726s-4.901 5.899-11.315 11.849c-1.603 1.487-3.388 3.144-5.382 5.015-10.782 10.121-13.544 25.786-6.874 38.982zm72.277 166.882-13.166-22.656c-1.683-2.896-4.992-4.437-8.294-3.861l-25.813 4.51 25.268-54.272c2.219 2.261 4.554 5.875 8.651 12.218 1.186 1.837 2.507 3.882 4.003 6.171 6.605 10.099 17.776 15.576 29.354 14.925zm123.505-38.627c-3.284-.672-6.636.772-8.402 3.619l-13.817 22.265-13.144-30.52c9.12-1.322 17.456-6.457 22.8-14.628 1.496-2.287 2.816-4.332 4.002-6.168 4.747-7.351 7.129-11.041 9.706-13.203 1.127-.945 2.535-1.803 4.436-2.754l20.09 46.646zm-177.96-155.568c1.969-1.848 3.731-3.483 5.314-4.951 15.241-14.139 16.012-15.476 20.637-35.746.48-2.104 1.014-4.447 1.63-7.075 1.766-7.538 7.901-12.686 15.631-13.116 2.695-.15 5.095-.27 7.251-.377 20.766-1.034 22.216-1.562 38.789-14.118 1.72-1.303 3.636-2.754 5.796-4.372 6.197-4.639 14.207-4.639 20.404 0 2.161 1.618 4.077 3.069 5.798 4.373 16.571 12.555 18.021 13.083 38.787 14.117 2.155.107 4.556.227 7.251.377 7.73.43 13.865 5.578 15.631 13.116.616 2.628 1.15 4.971 1.63 7.075 4.625 20.271 5.396 21.607 20.638 35.747 1.583 1.468 3.345 3.103 5.313 4.95 5.645 5.298 7.036 13.186 3.543 20.095-1.217 2.408-2.314 4.546-3.299 6.467-9.488 18.501-9.755 20.021-7.168 40.65.269 2.142.568 4.527.888 7.208.918 7.687-3.086 14.623-10.203 17.67-2.481 1.063-4.696 1.996-6.686 2.834-19.159 8.074-20.341 9.066-31.621 26.533-1.17 1.812-2.474 3.832-3.951 6.09-4.237 6.479-11.766 9.218-19.174 6.979-2.584-.781-4.88-1.49-6.942-2.126-9.934-3.065-15.286-4.598-20.639-4.598s-10.705 1.533-20.639 4.598c-2.062.636-4.359 1.345-6.943 2.126-7.408 2.24-14.937-.5-19.174-6.979-1.478-2.259-2.782-4.279-3.953-6.092-11.278-17.465-12.46-18.457-31.62-26.531-1.989-.838-4.204-1.771-6.685-2.834-7.117-3.048-11.121-9.983-10.202-17.67.32-2.68.62-5.064.888-7.206 2.587-20.63 2.319-22.15-7.168-40.65-.985-1.92-2.082-4.059-3.299-6.468-3.488-6.91-2.097-14.798 3.547-20.096zm105.251 104.073c43.031 0 78.04-35.008 78.04-78.039s-35.008-78.04-78.04-78.04-78.04 35.008-78.04 78.04c0 43.031 35.009 78.039 78.04 78.039zm0-140.079c34.209 0 62.04 27.831 62.04 62.04 0 34.208-27.831 62.039-62.04 62.039s-62.04-27.831-62.04-62.039c0-34.209 27.831-62.04 62.04-62.04zm-38.585 69.657c-3.124-3.124-3.124-8.189 0-11.313s8.189-3.124 11.313 0l13.817 13.817 41.005-37.213c3.272-2.97 8.331-2.724 11.301.548 2.969 3.272 2.724 8.332-.548 11.301l-46.649 42.335c-1.529 1.387-3.454 2.076-5.375 2.076-2.052 0-4.1-.785-5.658-2.343zm261.228-82.289-39.694-46.751c-2.07-2.439-5.093-3.838-8.293-3.838 0 0 0 0-.001 0-3.2 0-6.224 1.398-8.294 3.836-.001 0-.001.001-.001.001l-39.693 46.75c-2.778 3.271-3.385 7.722-1.584 11.615 1.801 3.894 5.587 6.312 9.879 6.312h10.487v91.632c0 7.591 6.175 13.766 13.766 13.766h30.88c7.591 0 13.766-6.175 13.766-13.766v-91.63h10.488c4.292 0 8.078-2.419 9.879-6.312 1.8-3.893 1.193-8.344-1.585-11.615zm-44.09-36.394c-.004.006-.009.011-.014.016zm17.307 38.321c-4.418 0-8 3.582-8 8v97.398h-26.412v-97.398c0-4.418-3.582-8-8-8h-7.431l28.637-33.728 28.636 33.728zm-410.208 16h10.487v91.632c0 7.591 6.175 13.766 13.766 13.766h30.88c7.591 0 13.766-6.175 13.766-13.766v-91.632h10.488c4.292 0 8.078-2.419 9.879-6.312s1.194-8.344-1.583-11.614l-39.694-46.752c-2.071-2.439-5.094-3.838-8.294-3.838 0 0 0 0-.001 0-3.2 0-6.224 1.398-8.294 3.836-.001 0-.001.001-.001.001l-39.693 46.75c-2.778 3.271-3.385 7.722-1.584 11.615 1.801 3.895 5.586 6.314 9.878 6.314zm43.592-54.321c-.004.006-.009.011-.014.016zm-3.898 4.593 28.636 33.728h-7.43c-4.418 0-8 3.582-8 8v97.398h-26.413v-97.398c0-4.418-3.582-8-8-8h-7.431z" fill="url(#SVGID_1_)"/></svg>