<svg id="fi_11702321" viewBox="0 0 512 512" xmlns="http://www.w3.org/2000/svg" xmlns:xlink="http://www.w3.org/1999/xlink" data-name="Layer 2"><linearGradient id="linear-gradient" gradientUnits="userSpaceOnUse" x1="74.98" x2="437.02" y1="74.98" y2="437.02"><stop offset="0" stop-color="#ff9f8a"></stop><stop offset="1" stop-color="#db3030"></stop></linearGradient><g id="Icon"><path id="L" d="m256 0c-141.38 0-256 114.62-256 256s114.62 256 256 256 256-114.62 256-256-114.62-256-256-256zm163.34 419.34c-43.63 43.63-101.64 67.66-163.34 67.66s-119.71-24.03-163.34-67.66-67.66-101.64-67.66-163.34 24.03-119.71 67.66-163.34 101.64-67.66 163.34-67.66 119.71 24.03 163.34 67.66 67.66 101.64 67.66 163.34-24.03 119.71-67.66 163.34zm-258.85-33.46v-20.37h16.01c1.69 0 3.46-.67 5.28-2.01 1.81-1.33 3.34-3.39 4.54-6.18 1.22-2.79 1.83-6.49 1.83-11.1v-179.36c0-5.09-.67-9.1-2.01-12.01-1.33-2.91-3.03-5.03-5.09-6.37s-4.42-2.01-7.09-2.01h-13.46v-20.37h116.8v20.37h-14.93c-3.63 0-6.36.67-8.17 2.01-1.83 1.33-3.1 3.4-3.83 6.18-.73 2.79-1.1 6.5-1.1 11.1v196.83h54.22c3.63 0 6.85-1.03 9.64-3.1 2.79-2.06 5.4-5.4 7.82-10s4.48-10.67 6.19-18.19l6.54-27.29h17.84l-1.83 81.86h-189.2z" fill="url(#linear-gradient)"></path></g></svg>