<svg id="fi_3686984" height="512" viewBox="0 0 32 32" width="512" xmlns="http://www.w3.org/2000/svg" xmlns:xlink="http://www.w3.org/1999/xlink"><linearGradient id="SVGID_1_" gradientUnits="userSpaceOnUse" x1="0" x2="32" y1="16" y2="16"><stop offset="0" stop-color="#fff33b"></stop><stop offset=".014" stop-color="#fee72e"></stop><stop offset=".042" stop-color="#fed51b"></stop><stop offset=".07" stop-color="#fdca10"></stop><stop offset=".1" stop-color="#fdc70c"></stop><stop offset=".4" stop-color="#f3903f"></stop><stop offset=".8" stop-color="#ed683c"></stop><stop offset="1" stop-color="#e93e3a"></stop></linearGradient><path d="m16 32c-8.822 0-16-7.178-16-16s7.178-16 16-16 16 7.178 16 16-7.178 16-16 16zm0-30c-7.72 0-14 6.28-14 14s6.28 14 14 14 14-6.28 14-14-6.28-14-14-14zm6.072 20.277h-12.144c-.553 0-1-.448-1-1s.447-1 1-1h12.145c.553 0 1 .448 1 1s-.448 1-1.001 1zm0-5.277h-12.144c-.553 0-1-.448-1-1s.447-1 1-1h12.145c.553 0 1 .448 1 1s-.448 1-1.001 1zm0-5.277h-12.144c-.553 0-1-.448-1-1s.447-1 1-1h12.145c.553 0 1 .448 1 1s-.448 1-1.001 1z" fill="url(#SVGID_1_)"></path></svg>