<svg height="512" viewBox="0 0 128 128" width="512" xmlns="http://www.w3.org/2000/svg" xmlns:xlink="http://www.w3.org/1999/xlink" id="fi_5987420"><linearGradient id="a" gradientUnits="userSpaceOnUse" x1="105.326" x2="22.688" y1="105.328" y2="22.69"><stop offset="0" stop-color="#fd5c70"></stop><stop offset="1" stop-color="#ffce64"></stop></linearGradient><path d="m23.117 100.68c-.954-1.065-1.883-2.16-2.757-3.3a1.75 1.75 0 1 0 -2.781 2.12 58.445 58.445 0 0 0 95.211-67.686 1.751 1.751 0 1 0 -2.92 1.932 54.93 54.93 0 0 1 -4.981 66.952 43.2 43.2 0 0 0 -30.827-28.075 23.113 23.113 0 1 0 -20.124 0 43.2 43.2 0 0 0 -30.821 28.057zm21.27-48.862a19.613 19.613 0 1 1 19.64 19.612h-.054a19.635 19.635 0 0 1 -19.586-19.612zm19.571 23.112h.042.042a39.7 39.7 0 0 1 38.083 28.616 54.882 54.882 0 0 1 -76.25 0 39.7 39.7 0 0 1 38.083-28.616zm37.009-51.581a1.75 1.75 0 1 1 2.346-2.6c1.226 1.106 2.45 2.323 3.636 3.615a1.75 1.75 0 1 1 -2.578 2.367c-1.112-1.21-2.258-2.348-3.404-3.382zm-91.917 40.651a54.985 54.985 0 0 0 6.5 25.932 1.75 1.75 0 1 1 -3.084 1.656 58.447 58.447 0 0 1 83.349-76.615 1.75 1.75 0 0 1 -1.909 2.933 54.944 54.944 0 0 0 -84.856 46.094z" fill="url(#a)"></path></svg>