<svg fill="none" height="24" viewBox="0 0 24 24" width="24" xmlns="http://www.w3.org/2000/svg" xmlns:xlink="http://www.w3.org/1999/xlink"><linearGradient id="paint0_linear_380_1187" gradientUnits="userSpaceOnUse" x1="20" x2="4.464" y1="11.969" y2="14.653"><stop offset="0" stop-color="#f55555"/><stop offset="1" stop-color="#fccf31"/></linearGradient><path clip-rule="evenodd" d="m20 12c0 4.4183-3.5817 8-8 8-4.41828 0-8-3.5817-8-8 0-4.41828 3.58172-8 8-8 4.4183 0 8 3.58172 8 8zm-8.5-4.5c0-.27614.2239-.5.5-.5s.5.22386.5.5-.2239.5-.5.5-.5-.22386-.5-.5zm.5 9.5c-.2761 0-.5-.2239-.5-.5v-6c0-.2761.2239-.5.5-.5s.5.2239.5.5v6c0 .2761-.2239.5-.5.5z" fill="url(#paint0_linear_380_1187)" fill-rule="evenodd"/></svg>